<svg xmlns="http://www.w3.org/2000/svg" version="1.1" xmlns:cc="http://creativecommons.org/ns#" viewBox="0 0 1708 1708" width="20px" height="20px">
 <g fill="#505050" transform="matrix(1,0,0,-1,-170,1321)">
  <path d="M170-387v1708h172v-1536h1536v-172h-1708zm236,491v21h20v-21h-20zm0,342v21h20v-21h-20zm0,340v23h20v-23h-20zm0,342v21h20v-21h-20zm20-901q0,32,27,49l395,396q17,26,49,26,31,0,47-22l60-60v21h20v-21h-20l170-170v21h20v-21h-20l20-22,582,582q14,14,32,16.5t33.5-4,26-20.5,10.5-33q0-23-18-45l-623-621q-18-18-43-18-29,0-45,22l-143,143h-2v3l-107,104-369-369q-9-9-20-12.5t-23-3.5q-25,0-42,17t-17,42zm66-123v21h20v-21h-20zm0,342v21h20v-21h-20zm0,340v23h20v-23h-20zm0,342v21h20v-21h-20zm83-1024v21h23v-21h-23zm0,342v21h23v-21h-23zm0,340v23h23v-23h-23zm0,342v21h23v-21h-23zm87-1110v23h20v-23h-20zm0-63h20v-21h-20v21zm0,149v21h20v-21h-20zm0-235h20v-21h-20v21zm0,321v21h20v-21h-20zm0,84v23h20v-23h-20zm0,256v23h20v-23h-20zm0,86v21h20v-21h-20zm0,86v21h20v-21h-20zm0,84v23h20v-23h-20zm0,86v21h20v-21h-20zm0,86v21h20v-21h-20zm0,84v23h20v-23h-20zm0,86v21h20v-21h-20zm0,86v21h20v-21h-20zm86-1110v21h20v-21h-20zm0,682v23h20v-23h-20zm0,342v21h20v-21h-20zm83-1024v21h23v-21h-23zm0,342v21h23v-21h-23zm0,340v23h23v-23h-23zm0,342v21h23v-21h-23zm87-1024v21h20v-21h-20zm0,342v21h20v-21h-20zm0,340v23h20v-23h-20zm0,342v21h20v-21h-20zm86-1110v23h20v-23h-20zm0-63h20v-21h-20v21zm0,149v21h20v-21h-20zm0-235h20v-21h-20v21zm0,321v21h20v-21h-20zm0,84v23h20v-23h-20zm0,86v21h20v-21h-20zm0,342v21h20v-21h-20zm0,84v23h20v-23h-20zm0,86v21h20v-21h-20zm0,86v21h20v-21h-20zm0,84v23h20v-23h-20zm0,86v21h20v-21h-20zm0,86v21h20v-21h-20zm83-1110v21h23v-21h-23zm0,682v23h23v-23h-23zm0,342v21h23v-21h-23zm87-1024v21h20v-21h-20zm0,682v23h20v-23h-20zm0,342v21h20v-21h-20zm86-1024v21h20v-21h-20zm0,682v23h20v-23h-20zm0,342v21h20v-21h-20zm83-1110v23h23v-23h-23zm0-63h23v-21h-23v21zm0,149v21h23v-21h-23zm0-235h23v-21h-23v21zm0,321v21h23v-21h-23zm0,84v23h23v-23h-23zm0,86v21h23v-21h-23zm0,256v21h23v-21h-23zm0,86v21h23v-21h-23zm0,84v23h23v-23h-23zm0,86v21h23v-21h-23zm0,86v21h23v-21h-23zm0,84v23h23v-23h-23zm0,86v21h23v-21h-23zm0,86v21h23v-21h-23zm87-1110v21h20v-21h-20zm0,342v21h20v-21h-20zm0,340v23h20v-23h-20zm0,342v21h20v-21h-20zm86-1024v21h20v-21h-20zm0,342v21h20v-21h-20zm0,340v23h20v-23h-20zm0,342v21h20v-21h-20zm83-1024v21h23v-21h-23zm0,342v21h23v-21h-23zm0,682v21h23v-21h-23zm87-1110v23h20v-23h-20zm0-63h20v-21h-20v21zm0,149v21h20v-21h-20zm0-235h20v-21h-20v21zm0,321v21h20v-21h-20zm0,84v23h20v-23h-20zm0,86v21h20v-21h-20zm0,86v21h20v-21h-20zm0,84v23h20v-23h-20zm0,86v21h20v-21h-20zm0,86v21h20v-21h-20zm0,256v21h20v-21h-20zm0,84v23h20v-23h-20zm0,86v21h20v-21h-20zm0,86v21h20v-21h-20zm86-1110v21h20v-21h-20zm0,342v21h20v-21h-20zm0,340v23h20v-23h-20zm0,342v21h20v-21h-20z"/>
 </g>
</svg>
