<svg xmlns="http://www.w3.org/2000/svg" version="1.1" xmlns:cc="http://creativecommons.org/ns#" viewBox="0 0 512 512" width="16px" height="16px">
<!-- Generator: IcoMoon.io -->
 <g fill="#505050">
  <path d="M 224.00,64.00l0.00-8.00 c0.00-13.20-10.80-24.00-24.00-24.00l-80.00,0.00 c-13.20,0.00-24.00,10.80-24.00,24.00l0.00,8.00 L0.00,64.00 l0.00,64.00 l 96.00,0.00 l0.00,8.00 c0.00,13.20, 10.80,24.00, 24.00,24.00l 80.00,0.00 c 13.20,0.00, 24.00-10.80, 24.00-24.00l0.00-8.00 l 288.00,0.00 L 512.00,64.00 L 224.00,64.00 z M 128.00,128.00L 128.00,64.00 l 64.00,0.00 l0.00,64.00 L 128.00,128.00 zM 416.00,216.00c0.00-13.20-10.80-24.00-24.00-24.00l-80.00,0.00 c-13.20,0.00-24.00,10.80-24.00,24.00l0.00,8.00 L0.00,224.00 l0.00,64.00 l 288.00,0.00 l0.00,8.00 c0.00,13.20, 10.80,24.00, 24.00,24.00l 80.00,0.00 c 13.20,0.00, 24.00-10.80, 24.00-24.00l0.00-8.00 l 96.00,0.00 l0.00-64.00 l-96.00,0.00 L 416.00,216.00 z M 320.00,288.00l0.00-64.00 l 64.00,0.00 l0.00,64.00 L 320.00,288.00 zM 224.00,376.00c0.00-13.20-10.80-24.00-24.00-24.00l-80.00,0.00 c-13.20,0.00-24.00,10.80-24.00,24.00l0.00,8.00 L0.00,384.00 l0.00,64.00 l 96.00,0.00 l0.00,8.00 c0.00,13.20, 10.80,24.00, 24.00,24.00l 80.00,0.00 c 13.20,0.00, 24.00-10.80, 24.00-24.00l0.00-8.00 l 288.00,0.00 l0.00-64.00 L 224.00,384.00 L 224.00,376.00 z M 128.00,448.00l0.00-64.00 l 64.00,0.00 l0.00,64.00 L 128.00,448.00 z" >
  </path>
 </g>
</svg>
