<?xml version="1.0" encoding="UTF-8" standalone="no"?>
<!-- Created with Inkscape (http://www.inkscape.org/) -->
<svg id="svg2" xmlns:rdf="http://www.w3.org/1999/02/22-rdf-syntax-ns#" xmlns="http://www.w3.org/2000/svg" xmlns:osb="http://www.openswatchbook.org/uri/2009/osb" xml:space="preserve" height="743.82" viewBox="0 0 1051.2583 743.82348" width="1051.3" version="1.1" xmlns:cc="http://creativecommons.org/ns#" xmlns:dc="http://purl.org/dc/elements/1.1/"><metadata id="metadata8"><rdf:RDF><cc:Work rdf:about=""><dc:format>image/svg+xml</dc:format><dc:type rdf:resource="http://purl.org/dc/dcmitype/StillImage"/><dc:title/></cc:Work></rdf:RDF></metadata><defs id="defs6"><clipPath id="clipPath20" clipPathUnits="userSpaceOnUse"><path id="path22" clip-rule="evenodd" d="m376.96 140.96v63.04h369.92v-63.04h-369.92z"/></clipPath><clipPath id="clipPath42" clipPathUnits="userSpaceOnUse"><path id="path44" clip-rule="evenodd" d="m486.88 378.4h422.08v21.6h-422.08v-21.6z"/></clipPath><clipPath id="clipPath64" clipPathUnits="userSpaceOnUse"><path id="path66" clip-rule="evenodd" d="m410.88 496.48h456v21.44h-456v-21.44z"/></clipPath><clipPath id="clipPath86" clipPathUnits="userSpaceOnUse"><path id="path88" clip-rule="evenodd" d="m454.88 557.44h344v21.44h-344v-21.44z"/></clipPath></defs><g id="g10" transform="matrix(.9375 0 0 .9375 -.95159 -.95159)"><g id="g12"><path id="path14" d="m48 48h1026.6v697.76h-1026.6v-697.76z" fill="#fff"/></g><g id="g16"><g id="g18" clip-path="url(#clipPath20)"><path id="path24" d="m384.32 188.96v-34.4h7.04v34.4h-7.04zm13.44 0v-34.4h6.88v34.4h-6.88zm13.44 0v-34.4h11.2c4.16 0 6.88 0.16 8.16 0.47999 2.08 0.48001 3.68 1.6 4.96 3.36 1.44 1.76 2.08 4 2.08 6.72 0 2.08-0.48001 3.84-1.12 5.28-0.80002 1.44-1.76 2.56-3.04 3.36-1.12 0.96001-2.4 1.44-3.52 1.76-1.76 0.32-4.16 0.48-7.2 0.48h-4.48v12.96h-7.04zm7.04-28.64v9.76h3.68c2.72 0 4.64-0.16 5.6-0.47999 0.80002-0.32001 1.6-0.96001 2.08-1.76 0.47998-0.64 0.79998-1.6 0.79998-2.56 0-1.28-0.32-2.4-1.12-3.2-0.63999-0.8-1.6-1.28-2.72-1.44-0.79999-0.16-2.56-0.31999-4.96-0.31999h-3.36zm24.8 28.64v-34.4h6.88v34.4h-6.88zm12.96-24.96h6.08v3.36c2.24-2.56 4.8-3.84 7.84-3.84 1.6 0 2.88 0.32 4.16 0.96 1.12 0.63999 2.08 1.6 2.88 2.88 1.12-1.28 2.24-2.24 3.52-2.88s2.56-0.96 4-0.96c1.92 0 3.36 0.32 4.64 1.12 1.28 0.64 2.24 1.76 2.88 3.2 0.48001 1.12 0.64001 2.72 0.64001 5.12v16h-6.56v-14.24c0-2.56-0.15998-4.16-0.63999-4.8-0.64001-0.95999-1.6-1.44-2.88-1.44-0.95999 0-1.76 0.32-2.56 0.8-0.79999 0.64-1.44 1.44-1.76 2.56-0.31998 1.12-0.47998 2.72-0.47998 5.12v12h-6.72v-13.76c0-2.4 0-3.84-0.32001-4.64-0.16-0.64-0.64001-1.12-1.12-1.6-0.48001-0.32001-1.12-0.48001-1.92-0.48001-1.12 0-1.92 0.32-2.72 0.8-0.79999 0.64-1.44 1.44-1.76 2.4-0.32 1.12-0.64 2.72-0.64 5.12v12.16h-6.56v-24.96zm48.16 7.68-5.92-1.12c0.64001-2.4 1.76-4.16 3.36-5.28 1.6-1.28 4.16-1.76 7.36-1.76 2.88 0 5.12 0.32 6.56 0.96 1.44 0.8 2.4 1.6 3.04 2.72 0.64001 0.96 0.79998 3.04 0.79998 5.92v7.68c0 2.08 0.16004 3.68 0.32001 4.8 0.16004 0.95999 0.64002 2.08 1.12 3.36h-6.4c-0.16-0.48-0.48-1.12-0.64-1.92-0.16-0.48-0.32-0.64-0.32-0.8-1.12 1.12-2.24 1.92-3.52 2.4-1.28 0.64-2.72 0.8-4.16 0.8-2.56 0-4.64-0.64-6.08-2.08-1.44-1.28-2.24-3.04-2.24-5.28 0-1.44 0.32001-2.56 1.12-3.68 0.64001-1.12 1.6-1.92 2.72-2.56 1.28-0.64 3.04-1.12 5.28-1.6 3.04-0.48001 5.28-1.12 6.4-1.6v-0.64c0-1.28-0.32001-2.08-0.96002-2.72-0.64001-0.48-1.76-0.8-3.52-0.8-1.12 0-2.08 0.32-2.72 0.63999-0.64001 0.48002-1.28 1.28-1.6 2.56zm8.8 5.28c-0.80005 0.31999-2.24 0.64-4 0.95999-1.92 0.47999-3.04 0.8-3.68 1.28-0.79999 0.47999-1.28 1.28-1.28 2.24 0 0.95999 0.48001 1.76 1.12 2.4 0.64001 0.64 1.6 0.96 2.56 0.96 1.28 0 2.4-0.32 3.52-1.12 0.63999-0.64 1.28-1.28 1.44-2.24 0.15998-0.47999 0.32001-1.6 0.32001-3.2v-1.28zm12.32 13.6 7.52 0.96c0.16003 0.80001 0.48004 1.44 0.96002 1.76 0.64001 0.47999 1.6 0.64 2.88 0.64 1.76 0 3.04-0.16001 3.84-0.64 0.64002-0.48 1.12-0.95999 1.28-1.76 0.32001-0.48001 0.32001-1.6 0.32001-3.04v-3.52c-1.92 2.56-4.32 4-7.36 4-3.36 0-6.08-1.44-8-4.32-1.4399-2.24-2.24-4.96-2.24-8.32 0-4.16 0.96002-7.36 3.04-9.6 1.92-2.08 4.48-3.2 7.36-3.2 3.2 0 5.6 1.28 7.68 4v-3.52h6.24v22.4c0 2.88-0.32001 5.12-0.79999 6.56s-1.12 2.56-2.08 3.36c-0.79998 0.95999-2.08 1.6-3.52 1.92-1.44 0.48-3.2 0.79999-5.44 0.79999-4.32 0-7.2-0.79999-8.96-2.24s-2.72-3.2-2.72-5.44v-0.8zm5.92-14.56c0 2.56 0.47998 4.48 1.6 5.76 0.96002 1.28 2.24 1.76 3.68 1.76 1.6 0 3.04-0.48001 4.16-1.76s1.6-3.2 1.6-5.6c0-2.56-0.47998-4.48-1.6-5.76s-2.4-1.92-4-1.92-2.88 0.63999-3.84 1.92c-1.12 1.12-1.6 3.04-1.6 5.6zm38.4 4.96 6.56 1.12c-0.79999 2.4-2.08 4.32-4 5.44-1.76 1.28-4 1.92-6.72 1.92-4.32 0-7.52-1.44-9.6-4.16-1.76-2.24-2.56-5.12-2.56-8.64 0-4.16 1.12-7.36 3.2-9.6 2.24-2.4 4.96-3.52 8.32-3.52 3.68 0 6.56 1.12 8.64 3.68 2.24 2.4 3.2 6.08 3.2 11.2h-16.64c0.15997 1.92 0.64001 3.52 1.6 4.48 1.12 1.12 2.4 1.76 3.84 1.76 1.12 0 1.92-0.31999 2.56-0.96001 0.79999-0.47999 1.28-1.44 1.6-2.72zm0.48004-6.56c-0.16004-1.92-0.64002-3.36-1.6-4.48-0.79999-0.95999-2.08-1.44-3.36-1.44-1.44 0-2.56 0.48001-3.52 1.6-0.95997 1.12-1.44 2.4-1.44 4.32h9.92zm23.52 3.36 6.72-0.64c0.32 2.24 1.28 3.84 2.4 4.96 1.28 1.12 3.04 1.6 5.1201 1.6 2.24 0 3.84-0.47999 4.96-1.44 1.12-0.96 1.76-2.08 1.76-3.36 0-0.8-0.32001-1.44-0.79999-2.08-0.32001-0.47999-1.28-0.96-2.4-1.44-0.79998-0.32001-2.72-0.8-5.6-1.44-3.68-0.95999-6.24-2.08-7.84-3.52-2.08-1.76-3.2-4.16-3.2-6.88 0-1.76 0.64001-3.36 1.6-4.8 0.96002-1.6 2.4-2.72 4.32-3.52 1.76-0.80001 4-1.28 6.72-1.28 4.32 0 7.52 0.96 9.76 2.88 2.08 1.92 3.2 4.48 3.36 7.52l-6.88 0.31999c-0.31995-1.76-0.95997-3.04-1.92-3.84-0.96002-0.64-2.4-1.12-4.48-1.12-1.92 0-3.52 0.48001-4.64 1.28-0.79999 0.47999-1.12 1.28-1.12 2.08 0 0.80001 0.32001 1.6 0.96002 2.08 0.95996 0.80001 3.04 1.6 6.4 2.4 3.36 0.80001 5.92 1.6 7.52 2.4s2.88 2.08 3.84 3.52c0.80005 1.44 1.28 3.36 1.28 5.44s-0.47998 3.84-1.6 5.6c-1.1201 1.76-2.56 2.88-4.64 3.84-1.92 0.79998-4.48 1.28-7.52 1.28-4.32 0-7.68-1.12-9.92-3.04-2.4-2.08-3.68-4.96-4.16-8.8zm48.16 3.2 6.56 1.12c-0.96003 2.4-2.24 4.32-4 5.44-1.92 1.28-4.16 1.92-6.88 1.92-4.32 0-7.52-1.44-9.6-4.16-1.6-2.24-2.4-5.12-2.4-8.64 0-4.16 0.96002-7.36 3.2-9.6 2.08-2.4 4.8-3.52 8.16-3.52 3.68 0 6.56 1.12 8.8 3.68 2.08 2.4 3.04 6.08 3.04 11.2h-16.48c0 1.92 0.48004 3.52 1.6 4.48 0.95996 1.12 2.24 1.76 3.68 1.76 1.12 0 1.92-0.31999 2.72-0.96001 0.64002-0.47999 1.1201-1.44 1.6-2.72zm0.32001-6.56c0-1.92-0.48004-3.36-1.44-4.48-0.96002-0.95999-2.08-1.44-3.52-1.44s-2.56 0.48001-3.52 1.6c-0.95997 1.12-1.44 2.4-1.44 4.32h9.92zm18.24 14.56h-6.56v-24.96h6.08v3.52c0.95996-1.6 1.92-2.72 2.8799-3.2 0.80005-0.64002 1.76-0.80001 2.72-0.80001 1.6 0 3.04 0.32 4.32 1.12l-1.92 5.76c-1.1201-0.64-2.24-0.95999-3.2-0.95999-0.79998 0-1.6 0.16001-2.24 0.64-0.64001 0.64-1.12 1.44-1.6 2.88-0.32001 1.28-0.47998 4-0.47998 8.32v7.68zm19.2 0l-10.08-24.96h6.88l4.8 12.8 1.28 4.16c0.31995-1.12 0.63996-1.76 0.63996-2.08 0.32-0.8 0.48004-1.44 0.80005-2.08l4.64-12.8h6.88l-9.92 24.96h-5.92zm34.24-8 6.56 1.12c-0.79999 2.4-2.08 4.32-4 5.44-1.76 1.28-4 1.92-6.88 1.92-4.32 0-7.52-1.44-9.6-4.16-1.6-2.24-2.4-5.12-2.4-8.64 0-4.16 1.12-7.36 3.2-9.6 2.24-2.4 4.96-3.52 8.16-3.52 3.84 0 6.72 1.12 8.8 3.68 2.24 2.4 3.2 6.08 3.04 11.2h-16.48c0.16004 1.92 0.64002 3.52 1.6 4.48 1.12 1.12 2.24 1.76 3.84 1.76 0.96002 0 1.92-0.31999 2.56-0.96001 0.80005-0.47999 1.28-1.44 1.6-2.72zm0.32001-6.56c0-1.92-0.48004-3.36-1.44-4.48-0.96002-0.95999-2.08-1.44-3.36-1.44-1.44 0-2.72 0.48001-3.52 1.6-0.96002 1.12-1.44 2.4-1.44 4.32h9.76zm18.24 14.56h-6.56v-24.96h6.08v3.52c1.12-1.6 2.08-2.72 2.8799-3.2 0.80005-0.64002 1.76-0.80001 2.88-0.80001 1.44 0 2.88 0.32 4.32 1.12l-2.08 5.76c-1.1201-0.64-2.08-0.95999-3.04-0.95999-0.95996 0-1.76 0.16001-2.4 0.64-0.64001 0.64-1.12 1.44-1.44 2.88-0.48004 1.28-0.64001 4-0.64001 8.32v7.68z"/></g></g><g id="g26" transform="scale(.10986)"><text id="text28" transform="translate(3614.7 2432.2)" font-size="327.68px" font-family="F1" fill="#000000"><tspan id="tspan30" y="0" x="0 157.28639 393.216 573.44 681.5744 812.64636 1009.2544 1166.5408 1258.2911 1458.176 1638.4 1769.4719 1949.6959 2041.4464 2241.3311 2441.2161 2532.9663 2713.1904 2804.9407">&quot;Astro&quot; Version 1.0</tspan></text>
</g><g id="g32" transform="scale(.085449)"><text id="text34" transform="translate(2559.7 4559.4)" font-size="327.68px" font-family="F1" fill="#000000"><tspan id="tspan36" y="0" x="0 219.54559 347.34079 547.22559 638.97601 822.47681 1005.9776 1114.1119 1205.8624 1445.0687 1644.9536 1936.5887 2120.0896 2211.8398 2431.3855 2611.6096 2811.4944 2994.9951 3103.1296">Project Home Page: </tspan></text>
</g><g id="g38"><g id="g40" clip-path="url(#clipPath42)"><path id="path46" d="m492 394.4h412" stroke="#551a8b" stroke-miterlimit="10" stroke-width="2.88" fill="none"/></g></g><g id="g48" transform="scale(.085449)"><text id="text50" transform="translate(5756 4559.4)" font-size="327.68px" font-family="F1" fill="#551a8b"><tspan id="tspan52" y="0" x="0 199.8848 311.29599 419.43039 619.31519 730.72638 822.47681 910.95038 1002.7008 1094.4512 1294.3359 1386.0864 1680.9984 1864.4991 2064.384 2244.6079 2336.3584 2519.8591 2719.7439 2919.6287 3050.7007 3230.9248 3414.4255 3522.5598 3725.7214 3853.5166 4053.4016 4236.9023 4328.6528 4528.5376 4712.0381">http://iipimage.sourceforge.net</tspan></text>
</g><g id="g54" transform="scale(.073242)"><text id="text56" transform="translate(3547.7 6929.3)" font-size="327.68px" font-family="F1" fill="#000000"><tspan id="tspan58" y="0" x="0 255.59039 347.34079 455.47519 655.35999 855.24481 1055.1295 1146.88 1366.4255 1549.9264 1746.5343 1930.0352 2041.4464">Github Page: </tspan></text>
</g><g id="g60"><g id="g62" clip-path="url(#clipPath64)"><path id="path68" d="m416 512.48h446.88" stroke="#551a8b" stroke-miterlimit="10" stroke-width="2.88" fill="none"/></g></g><g id="g70" transform="scale(.073242)"><text id="text72" transform="translate(5677.6 6929.3)" font-size="327.68px" font-family="F1" fill="#551a8b"><tspan id="tspan74" y="0" x="0 199.8848 311.29599 419.43039 619.31519 802.81598 910.95038 1002.7008 1091.1743 1294.3359 1386.0864 1494.2208 1694.1056 1893.9904 2093.8752 2185.6255 2365.8496 2565.7344 2857.3696 2949.1199 3132.6208 3424.2559 3604.48 3732.2751 4023.9104 4223.7949 4315.5454 4407.2959 4499.0464 4698.9312 4879.1553 5006.9502 5190.4512 5298.5854 5482.0864 5665.5869 5773.7217 5901.5166">https://github.com/cmarmo/iipsrv-astro</tspan></text>
</g><g id="g76" transform="scale(.073242)"><text id="text78" transform="translate(4487 7761.6)" font-size="327.68px" font-family="F1" fill="#000000"><tspan id="tspan80" y="0" x="0 239.20639 419.43039 527.56476 711.06561 838.86078 1019.0848 1222.2463 1402.4703 1585.9712 1694.1056">Reference: </tspan></text>
</g><g id="g82"><g id="g84" clip-path="url(#clipPath86)"><path id="path90" d="m458.88 573.44h335.04" stroke="#551a8b" stroke-miterlimit="10" stroke-width="2.88" fill="none"/></g></g><g id="g92" transform="scale(.073242)"><text id="text94" transform="translate(6271.8 7761.6)" font-size="327.68px" font-family="F1" fill="#551a8b"><tspan id="tspan96" y="0" x="0 199.8848 311.29599 419.43039 619.31519 730.72638 819.20001 910.95038 1091.1743 1222.2463 1402.4703 1494.2208 1651.5072 1743.2576 1943.1423 2070.9375 2270.8223 2362.5728 2546.0735 2742.6816 2926.1824 3017.9326 3201.4336 3381.6575 3565.1582 3745.3823 3837.1328 4020.6335 4204.1343 4384.3584">http://arxiv.org/abs/1403.6025</tspan></text>
</g><rect id="rect4224" height="792.08" width="1120" stroke="#000" y="1.6817" x="1.6817" stroke-width="1.3333" fill="none"/></g></svg>
