<?xml version="1.0" encoding="UTF-8"?>
<svg width="108.1mm" height="127.5mm" version="1.1" viewBox="0 0 408.7 482" xmlns="http://www.w3.org/2000/svg">
 <g transform="translate(-381.2 -371.7)">
  <path d="m397.6 853.4-0.626-0.2547v-190.1l1.584-0.608h113.2l1.937 1.037v67.99l-0.304 0.7921-0.304 0.7922h-40.35l-0.3192-1.272-0.3192-1.272 0.0462-12.82 0.0462-12.82-0.4393-0.4393-0.4394-0.4394-32.99 0.2644v107.7l33.8 0.2638 5e-3 -0.6326 5e-3 -0.6327 0.1203-13.67 0.1202-13.67 1.502-0.9493 38.24-0.018 0.787 0.7869 0.787 0.787v68.5l-1.906 1.02-113.5-0.0583-0.626-0.2548zm149.9-0.1624-19.53-0.2593-0.1265-94.6-0.1265-94.6 1.127-1.358 113.3 0.018 2.254 0.604v40.33l-2.254 0.6039-72.17 0.018-1.202 1.202v31.23l1.347 1.118 74.02 0.2569v40.57l-74.02 0.2569-1.347 1.118v72.79l-1.202 1.202-0.5509-0.2327zm130.8 0.1104-19.4-0.1311-0.1278-94.02-0.1278-94.02 0.7307-2.265 40.34 0.2618 0.2585 37.06 0.2585 37.06 0.1171 0.1252 0.1171 0.1251h32.99l0.8103-1.252 0.2504-36.56 0.2504-36.56h40.57v189.8h-40.57l-0.2504-35.81-0.2504-35.81-0.8103-1.252h-32.89l-0.608 1.584v71.42l-2.254 0.3672zm-282.9-206.6-0.6296-1.128-1.311-3.506-4.862-15.02-1.569-6.01-1.507-6.51-1.466-7.011-1.559-10.52-1.277-10.52v-29.55l1.311-11.52 1.474-9.515 1.621-8.013 0.8759-3.756 0.8759-3.756 1.076-3.957 1.076-3.957 3.898-11.62 1.912-5.008 4.25-10.02 5.772-11.52 2.255-4.006 5.102-8.514 7.479-11.02 6.229-8.013 7.728-9.014 8.709-9.014 8.971-8.112 2.934-2.405 3.577-3.083 10.02-7.454 7.011-4.599 4.507-2.872 1.671-1.022 2.836-1.601 13.52-7.102 12.02-5.17 8.013-2.949 10.52-3.347 5.509-1.506 6.01-1.629 4.507-0.2346v275.9l-148.5 0.2537zm231.2 0.4992-0.2377-0.626 0.2565-274.9 4.507 0.2346 6.01 1.629 5.509 1.506 10.52 3.347 8.013 2.953 7.512 3.216 6.51 3.008 3.506 1.688 8.013 4.369 3.736 2.339h0.4499l6.331 4.132 5.509 3.629 10.02 7.435 3.579 3.083 5.436 4.471 16.63 16.56 7.406 9.059 3.506 4.341 3.947 5.631 4.486 6.51 5.479 9.014 3.023 5.509 5.257 10.52 4.168 10.02 1.308 3.005 1.735 5.008 0.8162 2.003 3.034 10.02 2.083 8.514 0.9399 3.506 1.115 5.509 1.42 8.514 1.724 15.52 0.015 13.52 0.0151 13.52-1.324 13.52-1.472 9.014-0.7641 3.756-0.7641 3.756-0.7305 3.255-0.7306 3.255-0.7277 2.632-0.7277 2.632-1.637 5.753-1.483 4.507-1.483 4.507-0.8614 2.003-2.012 4.758h-148.3l-0.2377-0.626z" fill="#234290" stroke-width=".5008"/>
 </g>
</svg>
