<svg version="1.1" xmlns="http://www.w3.org/2000/svg" width="48px" height="24px" viewBox="0 0 300 175">
	<filter id="f2">
		<feOffset result="offOut" in="SourceGraphic" dx="0" dy="0"></feOffset>
		<feGaussianBlur stdDeviation="6" result="blurOut" in="offOut"></feGaussianBlur>
		<feBlend in2="blurOut" mode="normal" in="SourceGraphic"></feBlend>
	</filter>
	<g filter="url(#f2)">
		<path fill="#000000" d="M96.9,26.9c-12.5,0-24.3,3.2-34.5,8.8L86.6,9.5L52.1,41.6l4.2-13.9l-6.3,12L47.8,17l-2.2,22.7l-6.3-11.9l4.2,13.9L8.9,9.5
			L41,44.1l-13.9-4.2L39,46.2l-22.7,2.2L39,50.6l-11.9,6.3L41,52.7L8.9,87.3l24.9-23.2c-5.7,10.3-8.9,22.1-8.9,34.7
			c0,29.9,18.301,55.601,44.301,66.5C44.8,154.1,27.9,129.4,27.9,100.8c0-16.4,5.601-31.6,15-43.6L39.2,69l6.3-11.9l2.2,22.7L50,57.1
			L56.3,69L52,55l25.3,22.8L54.4,52.7l14,4.3L56.5,50.7l22.7-2.2l-22.7-2.2L68.4,40l-11,3.4C69.1,35,83.4,30,98.9,30
			c28.601,0,53.301,16.9,64.5,41.3C152.5,45.1,126.8,26.9,96.9,26.9z"/>
	</g>
	<g fill="#000000">
		<path d="M100.539,98.932c0.372-2.21,0.585-4.413,0.609-6.596l-4.984-0.31c-0.254,2.23-0.449,4.322-0.591,6.292
			c-2.615,15.089-13.583,31.18-21.858,43.316c-1.649,2.42-3.208,4.706-4.615,6.852l4.181,2.742c1.383-2.108,2.929-4.376,4.566-6.777
			c5.833-8.557,12.957-19.007,17.781-29.924c0.565,5.817,1.692,10.121,2.749,14.152l0.285,1.091l4.839-1.258l-0.287-1.1
			C101.392,120.458,99.516,113.295,100.539,98.932z"/>
		<rect x="87.299" y="76.898" transform="matrix(0.0559 -0.9984 0.9984 0.0559 5.5581 164.6734)" width="5.104" height="5"/>
		<path d="M194.548,118.671l1.855,4.643c1.835-0.733,12.762-5.201,24.362-12.069c1.018,2.944,2.682,5.449,4.981,7.3
			c3.953,3.183,15.623,8.557,38.516-10.258l-3.176-3.863c-13.914,11.438-25.952,15.258-32.205,10.226
			c-1.807-1.454-3.046-3.569-3.715-6.114c5.484-3.513,10.883-7.521,15.313-11.885c7.678-7.563,11.021-15.366,8.941-20.874
			c-1.075-2.848-3.567-4.651-6.668-4.825c-4.964-0.276-12.56,3.8-18.846,16.092c-3.366,6.581-4.754,13.283-4.226,19.035
			C207.932,113.216,196.408,117.927,194.548,118.671z M228.358,89.321c4.754-9.295,10.332-13.383,13.868-13.383
			c0.084,0,0.166,0.002,0.247,0.007c1.146,0.064,1.888,0.587,2.269,1.598c1.081,2.863-0.902,8.78-7.771,15.546
			c-3.608,3.555-7.914,6.872-12.379,9.861C224.722,98.737,225.973,93.984,228.358,89.321z"/>
		<path d="M187.607,137.091c-35.543,15.037-59.26,12.743-64.94,1.68c-4.373-8.517,2.374-23.755,27.13-37.667
			c4.046,11.275,7.553,20.92,8.487,23.111l4.6-1.961c-0.912-2.14-4.504-12.029-8.622-23.513c3.337-1.529,4.842-1.296,5.053-1.12
			c0.011,0.009,0.983,1.129-0.804,6.509l4.745,1.576c0.727-2.189,2.94-8.852-0.736-11.923c-2.168-1.81-5.51-1.724-9.949,0.237
			c-6.339-17.725-13.212-37.176-13.333-37.518l-4.717,0.006c-0.105,0.3-8.276,23.622-12.854,36.23
			c-1.694-6.762-2.845-12.117-3.254-15.2l-4.978,0.259c-0.197,7.045-3.28,27.913-4.827,35.127l4.889,1.049
			c0.889-4.146,2.226-12.359,3.286-20.153c0.736,2.938,1.461,5.696,2.038,7.842l4.723,0.313c1.646-3.956,9.375-25.832,13.346-37.121
			c2.633,7.437,7.045,19.872,11.2,31.484c-28.393,15.712-35.536,33.681-29.871,44.715c3.869,7.534,13.188,11.643,26.328,11.643
			c0.474,0,0.955-0.005,1.439-0.016c14.879-0.33,33.549-5.787,54.062-15.771c-2.606,0.273-5.07,0.417-7.363,0.417
			C190.896,137.328,189.211,137.241,187.607,137.091z"/>
		<path d="M296.216,98.639c-14.672,5.751-26.535,10.311-36.271,13.972c-12.755,9.414-21.624,10.858-27.34,9.896
			c-6.85,2.335-11.631,3.802-15.599,4.939c-27.296,7.822-43.02,2.666-46.496-5.914c-3.553-8.768,4.317-24.455,29.992-38.176
			c3.104-1.66,6.195-2.257,6.881-1.675c0.294,0.248,0.749,1.821-0.663,6.055l4.743,1.582c0.691-2.072,2.795-8.379-0.855-11.459
			c-3.651-3.082-9.933-0.266-12.463,1.087c-28.553,15.259-36.781,33.326-32.268,44.463c2.883,7.115,11.345,13.005,26.856,12.98
			c7.049-0.011,15.554-1.243,25.651-4.137c11.151-3.195,28.519-8.914,79.657-28.958L296.216,98.639z"/>
	</g>
</svg>
