<svg xmlns="http://www.w3.org/2000/svg" version="1.1" xmlns:cc="http://creativecommons.org/ns#" viewBox="0 0 610.76 610.05" width="20px" height="20px">
 <g fill="#505050" transform="matrix(0.35737914,0,0,-0.35737914,-60.575764,472.27653)">
  <path d="m170,680q0,173,86,321,85,148,233,234,149,86,322,86,172,0,320-86,147-85,233-234,86-148,86-321,0-171-82-313l461-461q49-49,49-121,0-35-11.5-65t-37.5-56-56-37.5-65-11.5q-72,0-121,49l-461,461q-146-84-315-84-174,0-322,85-147,86-233,233-86,149-86,321zm172,0q-2-95,35.5-180t102-149,150-102,181.5-38q63,0,122,17t111.5,48.5,95.5,74.5,74.5,95.5,48.5,111.5,17,122q0,96-38,181.5t-102,150-149.5,101.5-179.5,36q-98-2-180.5-35t-151.5-102-102-151.5-35-180.5zm170-86v172h213v213h170v-213h215v-172h-215v-213h-170v213h-213z"/>
 </g>
</svg>

