<svg xmlns="http://www.w3.org/2000/svg" version="1.1" xmlns:cc="http://creativecommons.org/ns#" viewBox="0 0 610.76 610.05" width="20px" height="20px">
 <g fill="#505050" transform="matrix(0.35737914,0,0,-0.35737914,-60.575764,472.27653)">
  <path d="m170,680c0,115.33,28.667,222.33,86,321,56.667,98.667,134.33,176.67,233,234,99.333,57.333,206.67,86,322,86,114.67,0,221.33-28.667,320-86,98-56.667,175.67-134.67,233-234,57.333-98.667,86-205.67,86-321,0-114-27.333-218.33-82-313l461-461c32.667-32.667,49-73,49-121,0-23.333-3.8333-45-11.5-65s-20.167-38.667-37.5-56-36-29.833-56-37.5c-20-7.6667-41.667-11.5-65-11.5-48,0-88.333,16.333-121,49l-461,461c-97.3-56-202.33-84-315-84-116,0-223.33,28.333-322,85-98,57.33-175.67,135-233,233-57.33,99.33-86,206.33-86,321zm172,0c-1.3333-63.333,10.5-123.33,35.5-180,25-56.667,59-106.33,102-149,43-42.667,93-76.667,150-102s117.5-38,181.5-38c42,0,82.667,5.6667,122,17s76.5,27.5,111.5,48.5,66.833,45.833,95.5,74.5,53.5,60.5,74.5,95.5,37.167,72.167,48.5,111.5,17,80,17,122c0,64-12.667,124.5-38,181.5s-59.333,107-102,150-92.5,76.833-149.5,101.5-116.83,36.667-179.5,36c-65.333-1.3333-125.5-13-180.5-35s-105.5-56-151.5-102-80-96.5-102-151.5-33.67-115.17-35-180.5zm170-86,0,172,598,0,0-172z"/>
 </g>
</svg>
