<?xml version="1.0" encoding="UTF-8" standalone="no"?><svg xmlns="http://www.w3.org/2000/svg" xml:space="preserve" height="20px" width="20px" viewBox="0 0 43 43" version="1.1" xmlns:cc="http://creativecommons.org/ns#"><g transform="matrix(1.25,0,0,-1.25,-306.86324,2897.7641)"> <g fill="#505050" transform="translate(734.34357,633.60381)">  <g transform="matrix(0.81970447,0,0,0.83288713,-471.72103,1677.3123)">   <path d="m-0.0032667-0.091168,0-23.741c6.5216,0,11.809,5.3152,11.809,11.87,0,6.5564-5.2871,11.872-11.809,11.872" fill-rule="nonzero" fill="#505050"/>  </g>  <g transform="translate(-471.63423,1653.5137)">   <path d="m0,0c-7.667,0-13.881,6.213-13.881,13.879,0,7.668,6.214,13.881,13.881,13.881,7.666,0,13.88-6.213,13.88-13.881,0-7.666-6.214-13.879-13.88-13.879m0,30.604c-9.236,0-16.723-7.489-16.723-16.725s7.487-16.723,16.723-16.723,16.723,7.487,16.723,16.723-7.487,16.725-16.723,16.725" fill-rule="nonzero" fill="#505050"/>  </g> </g></g></svg>