<?xml version="1.0" encoding="utf-8"?>
<!DOCTYPE svg PUBLIC "-//W3C//DTD SVG 1.1//EN" "http://www.w3.org/Graphics/SVG/1.1/DTD/svg11.dtd">
<svg version="1.1" id="Capa_1" xmlns="http://www.w3.org/2000/svg" xmlns:xlink="http://www.w3.org/1999/xlink" x="0px" y="0px"
	 width="20px" height="20px" viewBox="0 0 492 390" enable-background="new 0 0 492 390" xml:space="preserve">
<path d="M469.5,110c-15-27.333-35.833-48.833-62.5-64.5S350.5,18.333,317.5,11S247.667,0,207,0c-30.667,0-59.5,5.667-86.5,17
	s-49,25.333-66,42s-30.333,33.667-40,51S0,142.667,0,156c0,27.333,6.667,49.333,20,66s32.667,25,58,25
	c26.667,0,46.167,3.833,58.5,11.5S155,279.667,155,299c0,26,8.667,47.667,26,65s39,26,65,26c79.333,0,140.167-18,182.5-54
	S492,257.333,492,208C492,170,484.5,137.333,469.5,110z M107.5,185.5c-6.333,6.333-14,9.5-23,9.5s-16.667-3.167-23-9.5
	s-9.5-14-9.5-23s3.167-16.667,9.5-23s14-9.5,23-9.5s16.667,3.167,23,9.5s9.5,14,9.5,23S113.833,179.167,107.5,185.5z M174.5,117
	c-9,0-16.5-3.167-22.5-9.5s-9-14-9-23s3-16.667,9-23s13.5-9.5,22.5-9.5s16.667,3.167,23,9.5s9.5,14,9.5,23s-3.167,16.667-9.5,23
	S183.5,117,174.5,117z M273.5,326.5c-7.668,7.667-16.834,11.5-27.5,11.5c-10.667,0-19.833-3.833-27.5-11.5S207,309.667,207,299
	s3.833-19.834,11.5-27.5c7.667-7.667,16.834-11.5,27.5-11.5c10.667,0,19.833,3.833,27.5,11.5S285,288.333,285,299
	S281.167,318.833,273.5,326.5z M301.5,107.5c-6.333,6.333-14,9.5-23,9.5s-16.667-3.167-23-9.5s-9.5-14-9.5-23s3.167-16.667,9.5-23
	s14-9.5,23-9.5s16.667,3.167,23,9.5s9.5,14,9.5,23S307.833,101.167,301.5,107.5z M404.5,159.5c-6.333,6.333-14,9.5-23,9.5
	s-16.667-3.167-23-9.5s-9.5-14-9.5-23s3.167-16.667,9.5-23s14-9.5,23-9.5s16.667,3.167,23,9.5s9.5,14,9.5,23
	S410.833,153.167,404.5,159.5z" fill="#505050"/>
</svg>
